<?xml version="1.0" encoding="UTF-8"?><svg id="Layer_2" xmlns="http://www.w3.org/2000/svg" viewBox="0 0 50.08 40.06"><defs><style>.cls-1{fill:#b081e1;}.cls-1,.cls-2,.cls-3{fill-rule:evenodd;}.cls-2{fill:#e0e0e0;}.cls-3{fill:#d1d1d1;}</style></defs><g id="Layer_1-2"><g id="_101-light"><g id="Group-8"><path id="Fill-1" class="cls-1" d="M37.1,10.47c-2.76-2.76-3.49-6.82-2.26-10.47-4.66,1.1-8.13,5.29-8.13,10.29,0,5.84,4.74,10.58,10.58,10.58,5,0,9.19-3.47,10.29-8.13-3.66,1.23-7.72,.5-10.47-2.26"/><path id="Cloud_back" class="cls-3" d="M40.06,20.03H16.69v20.03h23.37c5.53,0,10.02-4.48,10.02-10.02s-4.48-10.02-10.02-10.02"/><path id="Cloud_front" class="cls-2" d="M33.38,23.37c0,9.22-7.47,16.69-16.69,16.69S0,32.59,0,23.37,7.47,6.68,16.69,6.68s16.69,7.47,16.69,16.69"/></g></g></g></svg>