<?xml version="1.0" encoding="UTF-8"?><svg id="Layer_2" xmlns="http://www.w3.org/2000/svg" viewBox="0 0 43.34 40"><defs><style>.cls-1{fill:#cce4ff;}.cls-1,.cls-2,.cls-3{fill-rule:evenodd;}.cls-2{fill:#c2ddf9;}.cls-3{fill:#c1c1c1;}</style></defs><g id="Layer_1-2"><g id="_302-light"><g id="Group-20-Copy-18"><g id="Group-5"><path id="Fill-1" class="cls-2" d="M10.69,8.31h14.79c3.63,0,6.58,2.98,6.58,6.65s-2.94,6.65-6.58,6.65H10.69V8.31Z"/><path id="Fill-3" class="cls-1" d="M21.37,10.81c0,5.97-4.78,10.81-10.69,10.81S0,16.78,0,10.81,4.78,0,10.69,0s10.69,4.84,10.69,10.81"/></g><g id="Group-18"><path id="Fill-6" class="cls-3" d="M31.61,40c-.43,0-.86-.16-1.19-.49-.66-.65-.66-1.71,0-2.36l.79-.79c.66-.65,1.73-.65,2.38,0,.66,.65,.66,1.71,0,2.36l-.8,.79c-.33,.33-.76,.49-1.19,.49"/><path id="Fill-8" class="cls-3" d="M35.69,35.96c-.43,0-.86-.16-1.19-.49-.66-.65-.66-1.71,0-2.36l5.96-5.89c.66-.65,1.73-.65,2.38,0,.66,.65,.66,1.71,0,2.36l-5.96,5.89c-.33,.33-.76,.49-1.19,.49"/><path id="Fill-8-Copy-2" class="cls-3" d="M22.76,29.3c-.43,0-.86-.16-1.19-.49-.66-.65-.66-1.71,0-2.36l5.96-5.89c.66-.65,1.73-.65,2.38,0,.66,.65,.66,1.71,0,2.36l-5.96,5.89c-.33,.33-.76,.49-1.19,.49"/><path id="Fill-14" class="cls-3" d="M33.54,28.66c-.43,0-.86-.16-1.19-.49-.66-.65-.66-1.71,0-2.36l.79-.79c.66-.65,1.73-.65,2.38,0,.66,.65,.66,1.71,0,2.36l-.8,.79c-.33,.33-.76,.49-1.19,.49"/><path id="Fill-16" class="cls-3" d="M23.1,38.99c-.43,0-.86-.16-1.19-.49-.66-.65-.66-1.71,0-2.36l7.15-7.07c.66-.65,1.73-.65,2.38,0,.66,.65,.66,1.71,0,2.36l-7.15,7.07c-.33,.33-.76,.49-1.19,.49"/></g></g></g></g></svg>