<?xml version="1.0" encoding="UTF-8"?>
<svg width="60px" height="31px" viewBox="0 0 60 31" version="1.1" xmlns="http://www.w3.org/2000/svg" xmlns:xlink="http://www.w3.org/1999/xlink">
    <title>Weather4.0/Rain-Rain Copy 2</title>
    <g id="Icons-and-infographics" stroke="none" stroke-width="1" fill="none" fill-rule="evenodd">
        <g id="Weather-Status-Icons" transform="translate(-470.000000, -1368.000000)" fill="#C1C1C1">
            <g id="Group" transform="translate(470.250000, 1367.999800)">
                <path d="M35.328,30.4242 C34.56,30.4242 33.792,30.1312 33.207,29.5452 C32.035,28.3742 32.035,26.4742 33.207,25.3032 L45.228,13.2822 C46.399,12.1112 48.299,12.1102 49.47,13.2822 C50.642,14.4542 50.642,16.3532 49.47,17.5252 L37.449,29.5452 C36.864,30.1312 36.096,30.4242 35.328,30.4242" id="Fill-12"></path>
                <path d="M55.0681,10.6842 C54.3001,10.6842 53.5331,10.3912 52.9471,9.8052 C51.7751,8.6342 51.7751,6.7342 52.9471,5.5632 L54.3611,4.1482 C55.5321,2.9772 57.4321,2.9762 58.6031,4.1482 C59.7751,5.3202 59.7751,7.2192 58.6041,8.3912 L57.1891,9.8052 C56.6041,10.3912 55.8361,10.6842 55.0681,10.6842" id="Fill-9"></path>
                <path d="M29.7592,19.0223 C28.9912,19.0223 28.2232,18.7293 27.6382,18.1433 C26.4662,16.9723 26.4662,15.0723 27.6382,13.9013 L36.8302,4.7083 C38.0022,3.5373 39.9012,3.5373 41.0732,4.7083 C42.2442,5.8803 42.2442,7.7793 41.0732,8.9513 L31.8802,18.1433 C31.2952,18.7293 30.5272,19.0223 29.7592,19.0223" id="Fill-7"></path>
                <path d="M6.0122,25.799 C5.2442,25.799 4.4762,25.506 3.8912,24.92 C2.7192,23.749 2.7192,21.849 3.8912,20.678 L23.6902,0.879 C24.8612,-0.293 26.7612,-0.293 27.9322,0.879 C29.1042,2.05 29.1042,3.95 27.9322,5.121 L8.1332,24.92 C7.5482,25.506 6.7802,25.799 6.0122,25.799" id="Fill-4"></path>
                <path d="M3,11.8405 C2.232,11.8405 1.464,11.5475 0.879,10.9615 C-0.293,9.7905 -0.293,7.8905 0.879,6.7195 L5.828,1.7695 C7,0.5985 8.9,0.5985 10.071,1.7695 C11.243,2.9415 11.243,4.8405 10.071,6.0125 L5.121,10.9615 C4.536,11.5475 3.768,11.8405 3,11.8405" id="Fill-1"></path>
            </g>
        </g>
    </g>
</svg>