<svg width="21" height="17" viewBox="0 0 21 17" fill="none" xmlns="http://www.w3.org/2000/svg">
<path d="M3 12V5.5C3 3.01472 5.01472 1 7.5 1C9.9853 1 12 3.01472 12 5.5V12.5C12 13.8807 13.1193 15 14.5 15C15.8807 15 17 13.8807 17 12.5V5.82929C15.8348 5.41746 15 4.30622 15 3C15 1.34315 16.3431 0 18 0C19.6569 0 21 1.34315 21 3C21 4.30622 20.1652 5.41746 19 5.82929V12.5C19 14.9853 16.9853 17 14.5 17C12.0147 17 10 14.9853 10 12.5V5.5C10 4.11929 8.88071 3 7.5 3C6.11929 3 5 4.11929 5 5.5V12H8L4 17L0 12H3ZM18 4C18.5523 4 19 3.55228 19 3C19 2.44772 18.5523 2 18 2C17.4477 2 17 2.44772 17 3C17 3.55228 17.4477 4 18 4Z" fill="white"/>
</svg>
