<svg width="380" height="720" xmlns="http://www.w3.org/2000/svg" xmlns:xlink="http://www.w3.org/1999/xlink" xml:space="preserve" overflow="hidden"><defs><clipPath id="clip0"><rect x="620" y="0" width="380" height="720"/></clipPath></defs><g clip-path="url(#clip0)" transform="translate(-620 0)"><path d="M0 0 719.998 0 719.998 719.998 0 719.998 0 0" fill="#FFFFFF" transform="matrix(1.03437 0 0 -1 280.686 720)"/><path d="M298.501 43.0462C298.501 38.9716 258.86 35.6695 209.96 35.6695 161.06 35.6695 121.419 38.9716 121.419 43.0462 121.419 47.1207 161.06 50.4262 209.96 50.4262 258.86 50.4262 298.501 47.1207 298.501 43.0462" fill="#DCDDDA" transform="matrix(1.03437 0 0 -1 280.686 720)"/><path d="M319.576 183.777C319.576 123.238 270.499 74.1635 209.96 74.1635 149.421 74.1635 100.345 123.238 100.345 183.777 100.345 226.84 125.179 264.106 161.305 282.031L161.305 635.677C161.305 662.546 183.09 684.331 209.96 684.331 223.397 684.331 235.561 678.886 244.364 670.078 253.17 661.278 258.615 649.111 258.615 635.677L258.615 282.031C294.742 264.106 319.576 226.84 319.576 183.777" fill="#B7DED5" transform="matrix(1.03437 0 0 -1 280.686 720)"/><path d="M298.5 183.779C298.5 134.875 258.861 95.2392 209.959 95.2392 161.057 95.2392 121.419 134.875 121.419 183.779 121.419 220.434 143.694 251.888 175.449 265.339L175.449 566.139 244.469 566.139 244.469 265.339C276.224 251.888 298.5 220.434 298.5 183.779" fill="#EF2D4C" transform="matrix(1.03437 0 0 -1 280.686 720)"/><path d="M175.449 566.143 175.449 634.656C175.449 653.713 190.9 669.165 209.96 669.165 219.49 669.165 228.118 665.302 234.364 659.058 240.61 652.814 244.471 644.185 244.471 634.656L244.471 566.143 175.449 566.143" fill="#DFF4ED" transform="matrix(1.03437 0 0 -1 280.686 720)"/><path d="M244.469 566.139 244.469 265.339C239.546 267.606 223.542 269.227 223.542 269.227L223.542 566.139 244.469 566.139" fill="#CE2548" transform="matrix(1.03437 0 0 -1 280.686 720)"/><path d="M244.47 634.652 244.47 566.143 223.543 566.143 223.543 636.274C223.543 647.752 217.385 665.799 195.078 665.799 199.583 667.958 204.63 669.165 209.96 669.165 219.489 669.165 228.118 665.306 234.365 659.058 240.609 652.81 244.47 644.185 244.47 634.652" fill="#CCEDE2" transform="matrix(1.03437 0 0 -1 280.686 720)"/><path d="M237.454 624.762 219.443 624.762 219.443 628.239 237.454 628.239 237.454 624.762" fill="#040606" transform="matrix(1.03437 0 0 -1 280.686 720)"/><path d="M237.453 594.592 219.442 594.592 219.442 598.067 237.453 598.067 237.453 594.592" fill="#040606" transform="matrix(1.03437 0 0 -1 280.686 720)"/><path d="M237.454 619.074 228.607 619.074 228.607 620.818 237.454 620.818 237.454 619.074" fill="#040606" transform="matrix(1.03437 0 0 -1 280.686 720)"/><path d="M237.454 613.388 228.607 613.388 228.607 615.132 237.454 615.132 237.454 613.388" fill="#040606" transform="matrix(1.03437 0 0 -1 280.686 720)"/><path d="M237.454 607.703 228.607 607.703 228.607 609.445 237.454 609.445 237.454 607.703" fill="#040606" transform="matrix(1.03437 0 0 -1 280.686 720)"/><path d="M237.452 602.009 228.605 602.009 228.605 603.753 237.452 603.753 237.452 602.009" fill="#040606" transform="matrix(1.03437 0 0 -1 280.686 720)"/><path d="M237.454 564.423 219.443 564.423 219.443 567.9 237.454 567.9 237.454 564.423" fill="#040606" transform="matrix(1.03437 0 0 -1 280.686 720)"/><path d="M237.452 588.903 228.605 588.903 228.605 590.646 237.452 590.646 237.452 588.903" fill="#040606" transform="matrix(1.03437 0 0 -1 280.686 720)"/><path d="M237.453 583.215 228.606 583.215 228.606 584.96 237.453 584.96 237.453 583.215" fill="#040606" transform="matrix(1.03437 0 0 -1 280.686 720)"/><path d="M237.453 577.528 228.606 577.528 228.606 579.273 237.453 579.273 237.453 577.528" fill="#040606" transform="matrix(1.03437 0 0 -1 280.686 720)"/><path d="M237.453 571.844 228.607 571.844 228.607 573.586 237.453 573.586 237.453 571.844" fill="#040606" transform="matrix(1.03437 0 0 -1 280.686 720)"/><path d="M237.453 534.25 219.442 534.25 219.442 537.727 237.453 537.727 237.453 534.25" fill="#040606" transform="matrix(1.03437 0 0 -1 280.686 720)"/><path d="M237.453 558.736 228.606 558.736 228.606 560.479 237.453 560.479 237.453 558.736" fill="#040606" transform="matrix(1.03437 0 0 -1 280.686 720)"/><path d="M237.454 553.05 228.607 553.05 228.607 554.793 237.454 554.793 237.454 553.05" fill="#040606" transform="matrix(1.03437 0 0 -1 280.686 720)"/><path d="M237.454 547.361 228.607 547.361 228.607 549.106 237.454 549.106 237.454 547.361" fill="#040606" transform="matrix(1.03437 0 0 -1 280.686 720)"/><path d="M237.452 541.671 228.605 541.671 228.605 543.414 237.452 543.414 237.452 541.671" fill="#040606" transform="matrix(1.03437 0 0 -1 280.686 720)"/><path d="M237.453 504.085 219.443 504.085 219.443 507.561 237.453 507.561 237.453 504.085" fill="#040606" transform="matrix(1.03437 0 0 -1 280.686 720)"/><path d="M237.453 528.565 228.606 528.565 228.606 530.309 237.453 530.309 237.453 528.565" fill="#040606" transform="matrix(1.03437 0 0 -1 280.686 720)"/><path d="M237.453 522.877 228.606 522.877 228.606 524.621 237.453 524.621 237.453 522.877" fill="#040606" transform="matrix(1.03437 0 0 -1 280.686 720)"/><path d="M237.453 517.192 228.606 517.192 228.606 518.933 237.453 518.933 237.453 517.192" fill="#040606" transform="matrix(1.03437 0 0 -1 280.686 720)"/><path d="M237.453 511.504 228.606 511.504 228.606 513.249 237.453 513.249 237.453 511.504" fill="#040606" transform="matrix(1.03437 0 0 -1 280.686 720)"/><path d="M237.453 473.914 219.443 473.914 219.443 477.389 237.453 477.389 237.453 473.914" fill="#040606" transform="matrix(1.03437 0 0 -1 280.686 720)"/><path d="M237.453 498.397 228.606 498.397 228.606 500.141 237.453 500.141 237.453 498.397" fill="#040606" transform="matrix(1.03437 0 0 -1 280.686 720)"/><path d="M237.453 492.709 228.606 492.709 228.606 494.453 237.453 494.453 237.453 492.709" fill="#040606" transform="matrix(1.03437 0 0 -1 280.686 720)"/><path d="M237.453 487.021 228.606 487.021 228.606 488.765 237.453 488.765 237.453 487.021" fill="#040606" transform="matrix(1.03437 0 0 -1 280.686 720)"/><path d="M237.453 481.333 228.606 481.333 228.606 483.077 237.453 483.077 237.453 481.333" fill="#040606" transform="matrix(1.03437 0 0 -1 280.686 720)"/><path d="M237.453 443.746 219.443 443.746 219.443 447.221 237.453 447.221 237.453 443.746" fill="#040606" transform="matrix(1.03437 0 0 -1 280.686 720)"/><path d="M237.453 468.226 228.606 468.226 228.606 469.97 237.453 469.97 237.453 468.226" fill="#040606" transform="matrix(1.03437 0 0 -1 280.686 720)"/><path d="M237.453 462.541 228.606 462.541 228.606 464.282 237.453 464.282 237.453 462.541" fill="#040606" transform="matrix(1.03437 0 0 -1 280.686 720)"/><path d="M237.453 456.853 228.606 456.853 228.606 458.594 237.453 458.594 237.453 456.853" fill="#040606" transform="matrix(1.03437 0 0 -1 280.686 720)"/><path d="M237.453 451.165 228.606 451.165 228.606 452.909 237.453 452.909 237.453 451.165" fill="#040606" transform="matrix(1.03437 0 0 -1 280.686 720)"/><path d="M237.453 413.575 219.443 413.575 219.443 417.05 237.453 417.05 237.453 413.575" fill="#040606" transform="matrix(1.03437 0 0 -1 280.686 720)"/><path d="M237.453 438.058 228.606 438.058 228.606 439.802 237.453 439.802 237.453 438.058" fill="#040606" transform="matrix(1.03437 0 0 -1 280.686 720)"/><path d="M237.453 432.37 228.606 432.37 228.606 434.114 237.453 434.114 237.453 432.37" fill="#040606" transform="matrix(1.03437 0 0 -1 280.686 720)"/><path d="M237.453 426.682 228.606 426.682 228.606 428.426 237.453 428.426 237.453 426.682" fill="#040606" transform="matrix(1.03437 0 0 -1 280.686 720)"/><path d="M237.453 420.997 228.606 420.997 228.606 422.738 237.453 422.738 237.453 420.997" fill="#040606" transform="matrix(1.03437 0 0 -1 280.686 720)"/><path d="M237.453 383.407 219.443 383.407 219.443 386.882 237.453 386.882 237.453 383.407" fill="#040606" transform="matrix(1.03437 0 0 -1 280.686 720)"/><path d="M237.453 407.89 228.606 407.89 228.606 409.631 237.453 409.631 237.453 407.89" fill="#040606" transform="matrix(1.03437 0 0 -1 280.686 720)"/><path d="M237.453 402.202 228.606 402.202 228.606 403.943 237.453 403.943 237.453 402.202" fill="#040606" transform="matrix(1.03437 0 0 -1 280.686 720)"/><path d="M237.453 396.514 228.606 396.514 228.606 398.255 237.453 398.255 237.453 396.514" fill="#040606" transform="matrix(1.03437 0 0 -1 280.686 720)"/><path d="M237.453 390.826 228.606 390.826 228.606 392.57 237.453 392.57 237.453 390.826" fill="#040606" transform="matrix(1.03437 0 0 -1 280.686 720)"/><path d="M237.453 353.235 219.443 353.235 219.443 356.711 237.453 356.711 237.453 353.235" fill="#040606" transform="matrix(1.03437 0 0 -1 280.686 720)"/><path d="M237.453 377.719 228.606 377.719 228.606 379.463 237.453 379.463 237.453 377.719" fill="#040606" transform="matrix(1.03437 0 0 -1 280.686 720)"/><path d="M237.453 372.031 228.606 372.031 228.606 373.775 237.453 373.775 237.453 372.031" fill="#040606" transform="matrix(1.03437 0 0 -1 280.686 720)"/><path d="M237.453 366.343 228.606 366.343 228.606 368.087 237.453 368.087 237.453 366.343" fill="#040606" transform="matrix(1.03437 0 0 -1 280.686 720)"/><path d="M237.453 360.658 228.606 360.658 228.606 362.399 237.453 362.399 237.453 360.658" fill="#040606" transform="matrix(1.03437 0 0 -1 280.686 720)"/><path d="M237.453 323.067 219.443 323.067 219.443 326.543 237.453 326.543 237.453 323.067" fill="#040606" transform="matrix(1.03437 0 0 -1 280.686 720)"/><path d="M237.453 347.551 228.606 347.551 228.606 349.292 237.453 349.292 237.453 347.551" fill="#040606" transform="matrix(1.03437 0 0 -1 280.686 720)"/><path d="M237.453 341.863 228.606 341.863 228.606 343.604 237.453 343.604 237.453 341.863" fill="#040606" transform="matrix(1.03437 0 0 -1 280.686 720)"/><path d="M237.453 336.175 228.606 336.175 228.606 337.919 237.453 337.919 237.453 336.175" fill="#040606" transform="matrix(1.03437 0 0 -1 280.686 720)"/><path d="M237.453 330.487 228.606 330.487 228.606 332.231 237.453 332.231 237.453 330.487" fill="#040606" transform="matrix(1.03437 0 0 -1 280.686 720)"/><path d="M237.453 292.899 219.443 292.899 219.443 296.375 237.453 296.375 237.453 292.899" fill="#040606" transform="matrix(1.03437 0 0 -1 280.686 720)"/><path d="M237.453 317.379 228.606 317.379 228.606 319.124 237.453 319.124 237.453 317.379" fill="#040606" transform="matrix(1.03437 0 0 -1 280.686 720)"/><path d="M237.453 311.691 228.606 311.691 228.606 313.436 237.453 313.436 237.453 311.691" fill="#040606" transform="matrix(1.03437 0 0 -1 280.686 720)"/><path d="M237.453 306.007 228.606 306.007 228.606 307.748 237.453 307.748 237.453 306.007" fill="#040606" transform="matrix(1.03437 0 0 -1 280.686 720)"/><path d="M237.453 300.319 228.606 300.319 228.606 302.06 237.453 302.06 237.453 300.319" fill="#040606" transform="matrix(1.03437 0 0 -1 280.686 720)"/><path d="M298.501 183.78C298.501 134.876 258.862 95.2396 209.96 95.2396 184.423 95.2396 161.411 106.046 145.25 123.343 162.154 115.504 185.441 112.13 215.97 123.892 245.102 135.121 265.956 166.094 268.414 195.408 270.635 221.881 263.674 245.225 249.396 263.072 278.506 248.567 298.501 218.507 298.501 183.78" fill="#CE2548" transform="matrix(1.03437 0 0 -1 280.686 720)"/><path d="M174.6 217.466C161.418 204.284 155.815 188.512 148.598 195.729 141.381 202.945 146.216 219.485 159.398 232.668 172.58 245.851 189.117 250.684 196.334 243.468 203.553 236.252 187.783 230.649 174.6 217.466" fill="#F14C62" transform="matrix(1.03437 0 0 -1 280.686 720)"/><path d="M153.27 172.499C153.27 167.626 149.322 163.679 144.451 163.679 139.581 163.679 135.632 167.626 135.632 172.499 135.632 177.369 139.581 181.316 144.451 181.316 149.322 181.316 153.27 177.369 153.27 172.499" fill="#F14C62" transform="matrix(1.03437 0 0 -1 280.686 720)"/><path d="M202.548 623.12 202.548 566.142 184.067 566.142 184.067 623.12C184.067 628.221 188.206 632.357 193.306 632.357 195.855 632.357 198.168 631.325 199.84 629.653 201.511 627.977 202.548 625.673 202.548 623.12" fill="#F4FBFA" transform="matrix(1.03437 0 0 -1 280.686 720)"/><path d="M202.547 566.139 202.547 327.687C202.547 322.582 198.407 318.448 193.305 318.448 188.204 318.448 184.066 322.582 184.066 327.687L184.066 566.139 202.547 566.139" fill="#F14C62" transform="matrix(1.03437 0 0 -1 280.686 720)"/><path d="M598.584 43.0463C598.584 38.9719 558.942 35.6697 510.045 35.6697 461.141 35.6697 421.499 38.9719 421.499 43.0463 421.499 47.121 461.141 50.4265 510.045 50.4265 558.942 50.4265 598.584 47.121 598.584 43.0463" fill="#DCDDDA" transform="matrix(1.03437 0 0 -1 280.686 720)"/><path d="M619.656 183.777C619.656 123.238 570.581 74.1635 510.041 74.1635 449.505 74.1635 400.425 123.238 400.425 183.777 400.425 226.84 425.26 264.106 461.386 282.031L461.386 635.677C461.386 662.546 483.172 684.331 510.041 684.331 523.476 684.331 535.643 678.886 544.447 670.078 553.25 661.278 558.696 649.111 558.696 635.677L558.696 282.031C594.823 264.106 619.656 226.84 619.656 183.777" fill="#B7DED5" transform="matrix(1.03437 0 0 -1 280.686 720)"/><path d="M598.579 183.78C598.579 134.879 558.944 95.2397 510.037 95.2397 461.137 95.2397 421.499 134.879 421.499 183.78 421.499 220.434 443.774 251.889 475.532 265.34L475.532 355.569 544.549 355.569 544.549 265.34C576.303 251.889 598.579 220.434 598.579 183.78" fill="#3776C4" transform="matrix(1.03437 0 0 -1 280.686 720)"/><path d="M475.53 355.569 475.53 634.656C475.53 653.713 490.983 669.165 510.044 669.165 519.572 669.165 528.197 665.302 534.441 659.058 540.69 652.814 544.553 644.185 544.553 634.656L544.553 355.569 475.53 355.569" fill="#DFF4ED" transform="matrix(1.03437 0 0 -1 280.686 720)"/><path d="M544.55 355.568 544.55 265.34C539.629 267.608 523.624 269.228 523.624 269.228L523.624 355.568 544.55 355.568" fill="#276FC0" transform="matrix(1.03437 0 0 -1 280.686 720)"/><path d="M544.549 634.652 544.549 355.568 523.624 355.568 523.624 636.274C523.624 647.752 517.462 665.799 495.158 665.799 499.661 667.958 504.711 669.165 510.039 669.165 519.568 669.165 528.197 665.306 534.446 659.058 540.69 652.81 544.549 644.185 544.549 634.652" fill="#CCEDE2" transform="matrix(1.03437 0 0 -1 280.686 720)"/><path d="M537.533 624.762 519.523 624.762 519.523 628.239 537.533 628.239 537.533 624.762" fill="#040606" transform="matrix(1.03437 0 0 -1 280.686 720)"/><path d="M537.53 594.592 519.522 594.592 519.522 598.067 537.53 598.067 537.53 594.592" fill="#040606" transform="matrix(1.03437 0 0 -1 280.686 720)"/><path d="M537.534 619.074 528.686 619.074 528.686 620.818 537.534 620.818 537.534 619.074" fill="#040606" transform="matrix(1.03437 0 0 -1 280.686 720)"/><path d="M537.535 613.388 528.689 613.388 528.689 615.132 537.535 615.132 537.535 613.388" fill="#040606" transform="matrix(1.03437 0 0 -1 280.686 720)"/><path d="M537.534 607.703 528.688 607.703 528.688 609.445 537.534 609.445 537.534 607.703" fill="#040606" transform="matrix(1.03437 0 0 -1 280.686 720)"/><path d="M537.529 602.009 528.684 602.009 528.684 603.753 537.529 603.753 537.529 602.009" fill="#040606" transform="matrix(1.03437 0 0 -1 280.686 720)"/><path d="M537.533 564.423 519.524 564.423 519.524 567.9 537.533 567.9 537.533 564.423" fill="#040606" transform="matrix(1.03437 0 0 -1 280.686 720)"/><path d="M537.531 588.903 528.683 588.903 528.683 590.646 537.531 590.646 537.531 588.903" fill="#040606" transform="matrix(1.03437 0 0 -1 280.686 720)"/><path d="M537.531 583.215 528.685 583.215 528.685 584.96 537.531 584.96 537.531 583.215" fill="#040606" transform="matrix(1.03437 0 0 -1 280.686 720)"/><path d="M537.533 577.528 528.684 577.528 528.684 579.273 537.533 579.273 537.533 577.528" fill="#040606" transform="matrix(1.03437 0 0 -1 280.686 720)"/><path d="M537.531 571.844 528.688 571.844 528.688 573.586 537.531 573.586 537.531 571.844" fill="#040606" transform="matrix(1.03437 0 0 -1 280.686 720)"/><path d="M537.53 534.25 519.521 534.25 519.521 537.727 537.53 537.727 537.53 534.25" fill="#040606" transform="matrix(1.03437 0 0 -1 280.686 720)"/><path d="M537.534 558.736 528.687 558.736 528.687 560.479 537.534 560.479 537.534 558.736" fill="#040606" transform="matrix(1.03437 0 0 -1 280.686 720)"/><path d="M537.533 553.05 528.687 553.05 528.687 554.793 537.533 554.793 537.533 553.05" fill="#040606" transform="matrix(1.03437 0 0 -1 280.686 720)"/><path d="M537.534 547.361 528.688 547.361 528.688 549.106 537.534 549.106 537.534 547.361" fill="#040606" transform="matrix(1.03437 0 0 -1 280.686 720)"/><path d="M537.53 541.671 528.685 541.671 528.685 543.414 537.53 543.414 537.53 541.671" fill="#040606" transform="matrix(1.03437 0 0 -1 280.686 720)"/><path d="M537.53 504.081 519.521 504.081 519.521 507.557 537.53 507.557 537.53 504.081" fill="#040606" transform="matrix(1.03437 0 0 -1 280.686 720)"/><path d="M537.53 528.564 528.682 528.564 528.682 530.308 537.53 530.308 537.53 528.564" fill="#040606" transform="matrix(1.03437 0 0 -1 280.686 720)"/><path d="M537.53 522.875 528.682 522.875 528.682 524.62 537.53 524.62 537.53 522.875" fill="#040606" transform="matrix(1.03437 0 0 -1 280.686 720)"/><path d="M537.53 517.19 528.682 517.19 528.682 518.931 537.53 518.931 537.53 517.19" fill="#040606" transform="matrix(1.03437 0 0 -1 280.686 720)"/><path d="M537.53 511.501 528.682 511.501 528.682 513.246 537.53 513.246 537.53 511.501" fill="#040606" transform="matrix(1.03437 0 0 -1 280.686 720)"/><path d="M537.53 473.914 519.521 473.914 519.521 477.389 537.53 477.389 537.53 473.914" fill="#040606" transform="matrix(1.03437 0 0 -1 280.686 720)"/><path d="M537.53 498.396 528.682 498.396 528.682 500.137 537.53 500.137 537.53 498.396" fill="#040606" transform="matrix(1.03437 0 0 -1 280.686 720)"/><path d="M537.53 492.707 528.682 492.707 528.682 494.452 537.53 494.452 537.53 492.707" fill="#040606" transform="matrix(1.03437 0 0 -1 280.686 720)"/><path d="M537.53 487.019 528.682 487.019 528.682 488.763 537.53 488.763 537.53 487.019" fill="#040606" transform="matrix(1.03437 0 0 -1 280.686 720)"/><path d="M537.53 481.334 528.682 481.334 528.682 483.075 537.53 483.075 537.53 481.334" fill="#040606" transform="matrix(1.03437 0 0 -1 280.686 720)"/><path d="M537.53 443.743 519.521 443.743 519.521 447.219 537.53 447.219 537.53 443.743" fill="#040606" transform="matrix(1.03437 0 0 -1 280.686 720)"/><path d="M537.53 468.225 528.682 468.225 528.682 469.97 537.53 469.97 537.53 468.225" fill="#040606" transform="matrix(1.03437 0 0 -1 280.686 720)"/><path d="M537.53 462.536 528.682 462.536 528.682 464.281 537.53 464.281 537.53 462.536" fill="#040606" transform="matrix(1.03437 0 0 -1 280.686 720)"/><path d="M537.53 456.851 528.682 456.851 528.682 458.592 537.53 458.592 537.53 456.851" fill="#040606" transform="matrix(1.03437 0 0 -1 280.686 720)"/><path d="M537.53 451.163 528.682 451.163 528.682 452.907 537.53 452.907 537.53 451.163" fill="#040606" transform="matrix(1.03437 0 0 -1 280.686 720)"/><path d="M537.53 413.575 519.521 413.575 519.521 417.051 537.53 417.051 537.53 413.575" fill="#040606" transform="matrix(1.03437 0 0 -1 280.686 720)"/><path d="M537.53 438.054 528.682 438.054 528.682 439.799 537.53 439.799 537.53 438.054" fill="#040606" transform="matrix(1.03437 0 0 -1 280.686 720)"/><path d="M537.53 432.369 528.682 432.369 528.682 434.113 537.53 434.113 537.53 432.369" fill="#040606" transform="matrix(1.03437 0 0 -1 280.686 720)"/><path d="M537.53 426.68 528.682 426.68 528.682 428.425 537.53 428.425 537.53 426.68" fill="#040606" transform="matrix(1.03437 0 0 -1 280.686 720)"/><path d="M537.53 420.995 528.682 420.995 528.682 422.736 537.53 422.736 537.53 420.995" fill="#040606" transform="matrix(1.03437 0 0 -1 280.686 720)"/><path d="M537.53 383.404 519.521 383.404 519.521 386.88 537.53 386.88 537.53 383.404" fill="#040606" transform="matrix(1.03437 0 0 -1 280.686 720)"/><path d="M537.53 407.886 528.682 407.886 528.682 409.631 537.53 409.631 537.53 407.886" fill="#040606" transform="matrix(1.03437 0 0 -1 280.686 720)"/><path d="M537.53 402.198 528.682 402.198 528.682 403.942 537.53 403.942 537.53 402.198" fill="#040606" transform="matrix(1.03437 0 0 -1 280.686 720)"/><path d="M537.53 396.513 528.682 396.513 528.682 398.254 537.53 398.254 537.53 396.513" fill="#040606" transform="matrix(1.03437 0 0 -1 280.686 720)"/><path d="M537.53 390.824 528.682 390.824 528.682 392.568 537.53 392.568 537.53 390.824" fill="#040606" transform="matrix(1.03437 0 0 -1 280.686 720)"/><path d="M537.53 353.233 519.521 353.233 519.521 356.709 537.53 356.709 537.53 353.233" fill="#040606" transform="matrix(1.03437 0 0 -1 280.686 720)"/><path d="M537.53 377.715 528.682 377.715 528.682 379.46 537.53 379.46 537.53 377.715" fill="#040606" transform="matrix(1.03437 0 0 -1 280.686 720)"/><path d="M537.53 372.03 528.682 372.03 528.682 373.775 537.53 373.775 537.53 372.03" fill="#040606" transform="matrix(1.03437 0 0 -1 280.686 720)"/><path d="M537.53 366.342 528.682 366.342 528.682 368.086 537.53 368.086 537.53 366.342" fill="#040606" transform="matrix(1.03437 0 0 -1 280.686 720)"/><path d="M537.53 360.656 528.682 360.656 528.682 362.398 537.53 362.398 537.53 360.656" fill="#040606" transform="matrix(1.03437 0 0 -1 280.686 720)"/><path d="M537.53 323.066 519.521 323.066 519.521 326.542 537.53 326.542 537.53 323.066" fill="#040606" transform="matrix(1.03437 0 0 -1 280.686 720)"/><path d="M537.53 347.548 528.682 347.548 528.682 349.289 537.53 349.289 537.53 347.548" fill="#040606" transform="matrix(1.03437 0 0 -1 280.686 720)"/><path d="M537.53 341.863 528.682 341.863 528.682 343.604 537.53 343.604 537.53 341.863" fill="#040606" transform="matrix(1.03437 0 0 -1 280.686 720)"/><path d="M537.53 336.174 528.682 336.174 528.682 337.918 537.53 337.918 537.53 336.174" fill="#040606" transform="matrix(1.03437 0 0 -1 280.686 720)"/><path d="M537.53 330.485 528.682 330.485 528.682 332.23 537.53 332.23 537.53 330.485" fill="#040606" transform="matrix(1.03437 0 0 -1 280.686 720)"/><path d="M537.53 292.898 519.521 292.898 519.521 296.374 537.53 296.374 537.53 292.898" fill="#040606" transform="matrix(1.03437 0 0 -1 280.686 720)"/><path d="M537.53 317.378 528.682 317.378 528.682 319.122 537.53 319.122 537.53 317.378" fill="#040606" transform="matrix(1.03437 0 0 -1 280.686 720)"/><path d="M537.53 311.69 528.682 311.69 528.682 313.434 537.53 313.434 537.53 311.69" fill="#040606" transform="matrix(1.03437 0 0 -1 280.686 720)"/><path d="M537.53 306.005 528.682 306.005 528.682 307.746 537.53 307.746 537.53 306.005" fill="#040606" transform="matrix(1.03437 0 0 -1 280.686 720)"/><path d="M537.53 300.317 528.682 300.317 528.682 302.058 537.53 302.058 537.53 300.317" fill="#040606" transform="matrix(1.03437 0 0 -1 280.686 720)"/><path d="M598.584 183.781C598.584 134.876 558.945 95.2399 510.045 95.2399 484.508 95.2399 461.494 106.047 445.332 123.343 462.235 115.505 485.525 112.131 516.053 123.893 545.181 135.122 566.036 166.095 568.497 195.409 570.715 221.882 563.756 245.226 549.478 263.073 578.588 248.568 598.584 218.508 598.584 183.781" fill="#276FC0" transform="matrix(1.03437 0 0 -1 280.686 720)"/><path d="M474.68 217.466C461.497 204.284 455.894 188.512 448.678 195.729 441.461 202.945 446.295 219.485 459.478 232.668 472.66 245.851 489.197 250.684 496.414 243.468 503.633 236.252 487.862 230.649 474.68 217.466" fill="#4994D6" transform="matrix(1.03437 0 0 -1 280.686 720)"/><path d="M453.351 172.499C453.351 167.626 449.401 163.679 444.531 163.679 439.661 163.679 435.711 167.626 435.711 172.499 435.711 177.369 439.661 181.316 444.531 181.316 449.401 181.316 453.351 177.369 453.351 172.499" fill="#4994D6" transform="matrix(1.03437 0 0 -1 280.686 720)"/><path d="M504.466 355.57 485.984 355.57 484.145 623.12C484.145 628.221 488.284 632.357 493.386 632.357 495.939 632.357 498.247 631.321 499.919 629.653 501.591 627.977 502.627 625.673 502.627 623.12L504.466 355.57" fill="#F4FBFA" transform="matrix(1.03437 0 0 -1 280.686 720)"/><path d="M504.687 323.359C504.687 318.253 500.551 314.12 495.445 314.12 490.346 314.12 486.206 318.253 486.206 323.359L485.984 355.569 504.465 355.569 504.687 323.359" fill="#4994D6" transform="matrix(1.03437 0 0 -1 280.686 720)"/></g></svg>